<?xml version="1.0" standalone="no"?>
<!DOCTYPE svg PUBLIC "-//W3C//DTD SVG 20010904//EN"
 "http://www.w3.org/TR/2001/REC-SVG-20010904/DTD/svg10.dtd">
<svg version="1.0" xmlns="http://www.w3.org/2000/svg"
 width="508.000000pt" height="627.000000pt" viewBox="0 0 508.000000 627.000000"
 preserveAspectRatio="xMidYMid meet">
<metadata>
Created by potrace 1.16, written by Peter Selinger 2001-2019
</metadata>
<g transform="translate(0.000000,627.000000) scale(0.100000,-0.100000)"
fill="#000000" stroke="none">
<path d="M2684 6258 c-98 -31 -177 -137 -194 -258 -17 -117 -12 -280 10 -351
28 -86 36 -283 20 -474 -11 -130 -17 -160 -47 -235 -43 -108 -55 -125 -101
-149 -20 -11 -32 -20 -26 -21 15 0 26 -43 13 -50 -5 -4 -3 -19 7 -39 13 -27
15 -53 11 -144 -3 -62 -8 -125 -10 -142 -7 -40 -20 -175 -21 -200 0 -85 18
-269 31 -310 8 -27 28 -90 44 -139 31 -96 54 -216 64 -336 7 -85 -10 -651 -25
-798 -5 -53 -12 -133 -14 -177 -7 -99 -15 -191 -21 -227 -2 -15 1 -30 7 -34 7
-5 6 -9 -4 -15 -16 -9 -19 -67 -3 -59 6 3 9 8 8 12 -1 3 5 9 13 12 11 4 18 -1
21 -14 3 -11 8 -20 12 -21 55 -6 76 -12 87 -27 9 -11 13 -12 14 -4 0 10 5 10
20 2 16 -9 22 -8 26 4 5 12 9 13 19 3 12 -10 11 -14 -3 -26 -16 -13 -16 -13 2
-7 15 5 17 2 13 -13 -3 -15 -1 -18 12 -14 14 4 14 3 1 -6 -30 -22 -92 -2 -83
26 3 9 -2 9 -21 0 -13 -7 -20 -15 -14 -18 7 -4 7 -9 0 -13 -6 -3 -18 1 -26 10
-9 8 -16 13 -16 10 0 -3 -22 3 -50 13 -27 11 -47 15 -44 10 3 -5 0 -9 -6 -9
-8 0 -10 9 -6 26 5 17 3 23 -4 19 -5 -3 -10 -1 -10 6 0 8 -4 8 -15 -1 -16 -14
-75 -22 -75 -11 0 4 12 14 28 24 l27 18 -29 -6 c-23 -5 -27 -3 -23 9 4 9 2 16
-3 16 -6 0 -10 -5 -10 -10 0 -6 -17 -10 -39 -8 -22 1 -39 4 -38 7 2 7 -3 9
-45 21 -17 5 -37 6 -43 2 -6 -4 -3 0 7 10 19 17 25 33 9 24 -5 -3 -11 3 -14
13 -6 23 -27 22 -51 -1 -10 -11 -12 -18 -5 -20 7 -2 9 -13 4 -27 -4 -13 -12
-20 -21 -17 -7 3 -16 0 -20 -6 -4 -6 -3 -8 2 -5 14 8 38 -9 30 -22 -4 -6 -21
-11 -39 -11 -23 0 -28 -3 -19 -12 9 -9 7 -15 -6 -25 -15 -13 -14 -14 13 -8 17
3 26 2 20 -2 -5 -4 -11 -15 -13 -23 -3 -11 1 -10 17 4 24 22 70 14 51 -9 -6
-8 -20 -12 -31 -10 -11 2 -17 0 -14 -6 4 -5 1 -9 -5 -9 -7 0 -6 -5 2 -14 7 -8
16 -12 19 -10 8 5 79 -18 79 -26 0 -14 409 -33 425 -20 12 10 57 -24 47 -35
-4 -4 3 -4 16 -1 13 4 22 3 22 -3 0 -5 12 1 26 14 28 26 36 29 47 18 4 -3 20
-8 37 -10 23 -2 36 4 57 27 14 17 28 28 30 26 3 -2 20 2 39 10 33 14 35 13 63
-15 16 -16 31 -35 34 -43 2 -7 8 -10 12 -6 4 4 2 14 -5 23 -7 9 -10 18 -6 22
3 3 6 0 6 -8 0 -11 2 -11 10 1 6 10 10 11 10 3 0 -7 7 -13 15 -13 9 0 18 -12
21 -29 6 -30 29 -48 39 -31 3 5 17 7 30 4 17 -3 25 0 25 10 0 8 5 18 12 22 7
4 8 3 4 -4 -12 -20 4 -35 21 -20 21 17 56 22 47 6 -4 -7 5 0 21 15 16 15 34
26 42 23 7 -3 13 -2 13 3 0 10 61 37 74 33 5 -2 4 3 -3 12 -13 15 1 32 18 21
6 -3 8 5 6 17 -3 20 -2 21 7 7 10 -15 14 -12 35 18 15 23 22 43 18 56 -5 18
-4 19 4 7 10 -14 12 -13 15 10 0 5 10 16 21 24 19 15 18 15 -20 17 -22 1 5 6
60 9 128 10 542 10 575 1 13 -4 55 -3 94 1 131 14 222 81 268 197 19 49 22 74
21 195 -1 123 0 136 13 118 17 -25 49 -24 72 2 9 11 11 16 5 12 -19 -11 -16
-1 12 40 18 26 22 40 14 45 -8 4 -4 9 10 14 11 3 21 10 21 14 0 4 19 18 43 31
23 13 50 34 60 47 10 13 23 23 29 23 6 0 5 -7 -3 -17 -8 -10 9 1 36 23 28 23
70 54 95 70 58 38 70 49 75 74 l4 21 -29 -21 c-33 -24 -166 -60 -219 -60 -31
0 -45 8 -86 51 -45 45 -54 50 -85 46 -26 -3 -43 3 -67 21 -31 23 -33 28 -33
86 0 38 7 74 18 96 24 48 98 99 156 106 42 6 48 5 53 -15 3 -11 10 -21 16 -21
6 0 7 3 4 7 -4 3 -2 12 4 20 9 9 8 13 0 13 -6 0 -11 3 -11 8 1 21 25 37 86 58
56 19 65 24 47 30 -13 3 -20 10 -17 15 11 18 -18 8 -115 -41 -55 -27 -103 -50
-108 -50 -5 0 -29 -13 -54 -28 l-44 -28 0 126 0 126 48 -25 c56 -28 139 -38
182 -21 l30 13 -35 9 c-19 5 -47 23 -62 39 -15 16 -30 29 -33 29 -3 0 -18 14
-32 31 -22 26 -32 30 -59 26 -21 -4 -37 -1 -44 8 -18 22 -22 123 -8 190 12 57
16 62 76 108 35 26 67 45 71 42 5 -2 25 -7 45 -9 31 -4 37 -2 32 10 -3 9 -6
18 -6 20 0 2 -7 4 -16 4 -13 0 -15 7 -10 33 6 30 31 58 102 113 32 24 27 54
-8 54 -23 1 -78 41 -78 58 0 34 -120 54 -140 23 -7 -12 -13 -12 -37 4 -22 14
-25 15 -15 2 11 -13 10 -17 -7 -26 -17 -10 -22 -7 -35 16 -46 91 -46 244 2
344 40 84 173 215 230 225 59 11 12 22 -95 23 l-92 1 -4 -72 c-3 -66 -3 -64
-4 22 -1 61 2 88 7 75 7 -17 9 -15 9 12 1 17 -3 35 -9 38 -17 10 -11 55 8 61
45 15 225 110 248 130 14 13 29 24 34 24 5 0 14 9 19 19 9 17 8 18 -12 14 -12
-3 -28 -11 -35 -16 -7 -6 -12 -6 -11 -1 4 24 -2 36 -17 30 -10 -4 -13 -2 -8 6
5 7 2 9 -9 5 -10 -4 -14 -2 -11 7 3 8 -7 12 -31 13 -42 1 -61 14 -70 51 -3 14
-16 46 -27 71 -14 30 -19 57 -15 82 6 45 41 98 65 100 27 2 -39 17 -80 18
l-38 1 0 56 c0 30 -3 53 -7 51 -5 -3 -8 52 -8 122 0 70 -6 149 -14 178 -24 98
-99 180 -190 211 -44 16 -1560 15 -1607 0z m1593 -13 c78 -23 127 -64 162
-137 33 -68 51 -158 32 -158 -6 0 -11 13 -11 29 0 94 -72 201 -162 242 l-53
24 -755 0 -755 0 -53 -24 c-89 -40 -162 -147 -162 -237 0 -13 -4 -26 -10 -29
-29 -18 10 132 50 190 33 48 80 81 143 101 66 20 1504 20 1574 -1z m-1757
-2107 c0 -484 -4 -738 -10 -728 -6 9 -10 282 -10 720 0 632 3 750 16 750 2 0
4 -334 4 -742z m-51 -35 c-22 -35 -55 -42 -53 -12 1 9 4 82 8 162 3 80 11 169
16 198 13 67 13 220 0 254 -8 22 -6 31 12 54 l23 27 7 -325 c7 -318 7 -325
-13 -358z"/>
<path d="M1966 2366 c-35 -22 -36 -25 -17 -31 26 -8 27 -20 1 -42 -11 -10 -20
-23 -20 -30 0 -6 9 -15 20 -18 23 -7 26 -21 8 -28 -7 -3 16 -5 52 -4 36 1 67
4 70 7 3 3 28 16 55 29 28 13 44 26 37 28 -7 3 -18 0 -25 -6 -10 -7 -26 -4
-61 14 -27 14 -53 22 -59 18 -5 -3 -8 0 -5 7 4 14 12 19 58 39 23 10 22 11
-15 10 -67 -1 -69 -1 -55 16 18 22 1 18 -44 -9z"/>
<path d="M3568 1527 c-64 -58 -76 -67 -88 -67 -9 0 -13 -11 -12 -30 0 -3 -16
-6 -35 -8 -28 -2 -34 1 -30 13 4 8 2 17 -2 20 -11 6 -23 -23 -15 -36 3 -5 -10
-7 -28 -5 -18 2 -39 -1 -45 -6 -9 -7 -17 -7 -26 0 -7 6 -42 10 -77 8 -56 -2
-67 -5 -76 -25 -6 -12 -14 -22 -18 -22 -18 2 -19 -1 -3 -13 15 -12 15 -15 3
-26 -16 -13 -60 -4 -51 11 3 5 -1 6 -9 3 -9 -3 -15 -9 -14 -12 0 -4 0 -14 -1
-22 -1 -12 -4 -11 -12 3 -6 9 -14 15 -20 12 -5 -3 -6 1 -3 10 5 12 1 14 -17
11 -13 -2 -23 -9 -21 -16 2 -7 -3 -10 -11 -7 -7 3 -19 -3 -25 -13 -9 -15 -17
-17 -49 -10 -20 5 -39 7 -42 5 -2 -3 -12 5 -22 16 -10 12 -23 18 -28 14 -6 -3
-11 -3 -11 2 0 4 -9 19 -20 33 -12 14 -18 18 -14 8 5 -16 4 -16 -24 -3 -16 9
-32 24 -35 35 -3 12 -9 19 -14 18 -9 -3 -31 13 -76 57 -32 31 -29 22 8 -30 12
-16 25 -38 28 -47 8 -23 -9 -24 -17 -2 -4 9 -9 15 -11 12 -3 -3 4 -27 16 -53
18 -41 19 -50 8 -59 -8 -6 -13 -22 -11 -35 3 -21 1 -23 -23 -17 -20 5 -31 2
-41 -11 -13 -17 -13 -17 -14 0 0 14 -5 17 -21 12 -15 -5 -20 -3 -17 6 6 18
-36 51 -56 43 -13 -5 -12 -11 10 -40 22 -29 24 -34 9 -34 -11 0 -2 -12 27 -36
71 -59 81 -73 68 -89 -6 -8 -9 -18 -6 -23 8 -13 -20 -35 -34 -27 -20 13 -9
-12 15 -33 28 -25 44 -29 26 -8 -8 10 -9 16 -1 21 17 11 27 -3 24 -32 -2 -16
-1 -20 2 -10 3 9 10 15 15 11 5 -3 7 -10 4 -15 -4 -5 2 -9 12 -9 15 0 16 -2 3
-10 -13 -8 -12 -10 3 -10 9 0 17 -4 17 -9 0 -10 10 -14 63 -25 16 -4 25 -11
21 -17 -3 -6 5 -3 20 6 14 9 23 21 20 26 -3 5 -2 8 3 7 4 -1 17 5 28 14 11 9
55 45 97 80 42 35 131 92 197 128 67 36 121 68 121 73 0 4 6 7 13 7 20 0 128
76 120 84 -5 4 -3 6 3 4 6 -2 23 6 39 17 56 40 141 108 165 134 14 14 38 36
54 47 16 12 25 24 20 27 -5 3 -30 -13 -56 -36z"/>
<path d="M489 718 c-1 -7 -1 -16 -1 -19 1 -4 -10 -19 -23 -33 -14 -15 -25 -31
-25 -37 0 -5 -4 -9 -10 -9 -5 0 -10 -7 -10 -15 0 -8 -4 -15 -10 -15 -5 0 -10
-9 -10 -20 0 -11 -7 -23 -15 -26 -8 -4 -13 -9 -10 -14 2 -4 -7 -18 -20 -30
-14 -13 -25 -29 -25 -36 0 -7 -4 -14 -8 -16 -12 -5 -165 -231 -165 -245 0 -7
-3 -11 -6 -9 -3 2 -39 -41 -78 -95 l-73 -99 238 2 c130 0 222 3 205 5 -18 2
-33 8 -33 14 0 5 -8 9 -17 9 -9 0 -24 7 -34 16 -17 15 -17 19 -3 46 9 17 14
42 11 55 -3 17 3 33 20 51 16 17 20 28 13 30 -7 3 -16 -2 -21 -9 -8 -13 -13
-5 -10 15 1 5 -7 15 -19 23 -11 8 -20 21 -20 29 0 12 4 13 23 3 22 -12 22 -12
3 10 -18 20 -18 21 -1 21 10 0 24 8 31 18 16 20 18 36 4 27 -5 -3 -10 -2 -10
4 0 5 8 15 18 20 10 6 12 11 4 11 -8 0 -10 5 -5 13 15 24 14 50 -2 43 -21 -8
-19 8 5 29 11 10 20 26 20 35 0 10 7 23 15 30 9 7 14 19 11 27 -3 7 1 13 8 13
18 0 27 23 15 41 -6 9 -2 19 11 29 20 16 35 70 19 70 -5 0 -10 -6 -10 -12z"/>
</g>
</svg>
